# xmcd
#
# Track frame offsets:
#  150
#  22599
#  45015
#  64047
#  84888
#  120494
#  145736
#  171729
#  191206
#  225104
#  263856
#  300017
#
# Disc length: 4515 seconds
#
# Revision: 0
# Processed by: cddbd v1.5.1PL2 Copyright (c) Steve Scherf et al.
# Submitted via: Collectorz.com_Music_Collector 6.9
#
DISCID=8211a10c
DTITLE=Larry McCray - Live on 75
DYEAR=2005
DGENRE=Blues Rock
TTITLE0=Delta Hurricane
TTITLE1=Man on Bended Knee
TTITLE2=Believe It
TTITLE3=Witchin' Woman
TTITLE4=Gone For Good
TTITLE5=Four Nickels
TTITLE6=Blue River (Instrumental)
TTITLE7=Secret Lover
TTITLE8=Blues is My Business
TTITLE9=Somebody's Watching
TTITLE10=Nobody Never Hurt Nobody With the Blues
TTITLE11=Soul Shine
EXTD=
EXTT0=
EXTT1=
EXTT2=
EXTT3=
EXTT4=
EXTT5=
EXTT6=
EXTT7=
EXTT8=
EXTT9=
EXTT10=
EXTT11=
PLAYORDER=
